<svg width="256" height="309" xmlns="http://www.w3.org/2000/svg">
  <path d="m254.31363,235.52068l-106.31192,-225.76891c-2.69115,-5.66052 -8.26904,-9.38999 -14.52834,-9.71389c-6.27371,-0.42035 -12.26057,2.68328 -15.53296,8.05241l-115.30713,186.75875c-3.57966,5.75711 -3.50434,13.06563 0.19319,18.74775l56.37461,87.30143c4.38017,6.73031 12.6659,9.77731 20.36286,7.48828l163.59842,-48.39175c4.98387,-1.45715 9.09119,-5.00349 11.25946,-9.72163c2.13881,-4.69541 2.10207,-10.0943 -0.10046,-14.76017l-0.00773,0.00773zm-23.80175,9.68298l-138.82295,41.0503c-4.23486,1.25964 -8.29971,-2.41109 -7.41873,-6.68459l49.59729,-237.48431c0.92734,-4.44351 7.06324,-5.14674 9.00293,-1.03553l91.81449,194.97345c0.82154,1.75834 0.83145,3.78835 0.02711,5.55462c-0.80434,1.76627 -2.34216,3.09146 -4.20787,3.62606l0.00773,0z" fill="#000000" fill-rule="nonzero" />
</svg>