<svg viewBox="0 0 453 334">
  <rect x="19" y="181" height="132" width="195" style="fill:#e3002b"/>
  <rect style="fill:#ffffff" width="195" height="132" x="235" y="181"/>
  <rect transform="matrix(1,0,0.667545,0.74456946,0,0)" y="50" x="100" height="175" width="203" style="fill:#0071ce"/>
  <path d="M 11,164 117,48 222,164 Z" style="fill:#fddd00"/>
  <path d="m 193,0 0,31 -84,0 -109,124 0,179 453,0 0,-179 -109,-124 -84,0 0,-31 -65,0 z m -32,63 170,0 81,92 -170,0 -81,-92 z m -39,1 80,91 -161,0 80,-91 z m -89,123 179,0 0,116 -179,0 0,-116 z m 210,0 178,0 0,116 -178,0 0,-116 z" style="fill:000000" />
</svg>