<svg xmlns="http://www.w3.org/2000/svg" viewBox="0 0 800 800">
  <g fill="none" stroke-width="3" stroke="hsl(190, 100%, 70%, .7)" stroke-linecap="round">
    <line x1="317" y1="400" x2="483" y2="400" transform="rotate(0, 400, 400)" opacity="0.44"></line>
    <line x1="407" y1="400" x2="393" y2="400" transform="rotate(4, 400, 400)" opacity="0.76"></line>
    <line x1="156.5" y1="400" x2="643.5" y2="400" transform="rotate(8, 400, 400)" opacity="0.82"></line>
    <line x1="450" y1="400" x2="350" y2="400" transform="rotate(12, 400, 400)" opacity="0.18"></line>
    <line x1="468.5" y1="400" x2="331.5" y2="400" transform="rotate(16, 400, 400)" opacity="0.97"></line>
    <line x1="686" y1="400" x2="114" y2="400" transform="rotate(20, 400, 400)" opacity="0.45"></line>
    <line x1="360.5" y1="400" x2="439.5" y2="400" transform="rotate(24, 400, 400)" opacity="0.44"></line>
    <line x1="425.5" y1="400" x2="374.5" y2="400" transform="rotate(28, 400, 400)" opacity="0.80"></line>
    <line x1="197.5" y1="400" x2="602.5" y2="400" transform="rotate(32, 400, 400)" opacity="0.21"></line>
    <line x1="39" y1="400" x2="761" y2="400" transform="rotate(36, 400, 400)" opacity="0.91"></line>
    <line x1="100" y1="400" x2="700" y2="400" transform="rotate(40, 400, 400)" opacity="0.12"></line>
    <line x1="714.5" y1="400" x2="85.5" y2="400" transform="rotate(44, 400, 400)" opacity="0.43"></line>
    <line x1="490.5" y1="400" x2="309.5" y2="400" transform="rotate(48, 400, 400)" opacity="0.59"></line>
    <line x1="671" y1="400" x2="129" y2="400" transform="rotate(52, 400, 400)" opacity="0.90"></line>
    <line x1="102.5" y1="400" x2="697.5" y2="400" transform="rotate(56, 400, 400)" opacity="0.14"></line>
    <line x1="276.5" y1="400" x2="523.5" y2="400" transform="rotate(60, 400, 400)" opacity="0.92"></line>
    <line x1="478" y1="400" x2="322" y2="400" transform="rotate(64, 400, 400)" opacity="0.38"></line>
    <line x1="580.5" y1="400" x2="219.5" y2="400" transform="rotate(68, 400, 400)" opacity="0.31"></line>
    <line x1="108.5" y1="400" x2="691.5" y2="400" transform="rotate(72, 400, 400)" opacity="1.00"></line>
    <line x1="490" y1="400" x2="310" y2="400" transform="rotate(76, 400, 400)" opacity="0.95"></line>
    <line x1="294.5" y1="400" x2="505.5" y2="400" transform="rotate(80, 400, 400)" opacity="0.80"></line>
    <line x1="553.5" y1="400" x2="246.5" y2="400" transform="rotate(84, 400, 400)" opacity="0.96"></line>
    <line x1="694" y1="400" x2="106" y2="400" transform="rotate(88, 400, 400)" opacity="0.08"></line>
    <line x1="156.5" y1="400" x2="643.5" y2="400" transform="rotate(92, 400, 400)" opacity="0.41"></line>
    <line x1="612" y1="400" x2="188" y2="400" transform="rotate(96, 400, 400)" opacity="0.31"></line>
    <line x1="419" y1="400" x2="381" y2="400" transform="rotate(100, 400, 400)" opacity="0.17"></line>
    <line x1="391" y1="400" x2="409" y2="400" transform="rotate(104, 400, 400)" opacity="0.42"></line>
    <line x1="417.5" y1="400" x2="382.5" y2="400" transform="rotate(108, 400, 400)" opacity="0.83"></line>
    <line x1="250" y1="400" x2="550" y2="400" transform="rotate(112, 400, 400)" opacity="0.09"></line>
    <line x1="223" y1="400" x2="577" y2="400" transform="rotate(116, 400, 400)" opacity="0.76"></line>
    <line x1="535" y1="400" x2="265" y2="400" transform="rotate(120, 400, 400)" opacity="0.47"></line>
    <line x1="237" y1="400" x2="563" y2="400" transform="rotate(124, 400, 400)" opacity="0.08"></line>
    <line x1="162.5" y1="400" x2="637.5" y2="400" transform="rotate(128, 400, 400)" opacity="0.20"></line>
    <line x1="605" y1="400" x2="195" y2="400" transform="rotate(132, 400, 400)" opacity="0.76"></line>
    <line x1="735" y1="400" x2="65" y2="400" transform="rotate(136, 400, 400)" opacity="0.08"></line>
    <line x1="373.5" y1="400" x2="426.5" y2="400" transform="rotate(140, 400, 400)" opacity="0.22"></line>
    <line x1="130.5" y1="400" x2="669.5" y2="400" transform="rotate(144, 400, 400)" opacity="0.41"></line>
    <line x1="496.5" y1="400" x2="303.5" y2="400" transform="rotate(148, 400, 400)" opacity="0.37"></line>
    <line x1="184" y1="400" x2="616" y2="400" transform="rotate(152, 400, 400)" opacity="0.43"></line>
    <line x1="407" y1="400" x2="393" y2="400" transform="rotate(156, 400, 400)" opacity="0.57"></line>
    <line x1="288" y1="400" x2="512" y2="400" transform="rotate(160, 400, 400)" opacity="0.26"></line>
    <line x1="432.5" y1="400" x2="367.5" y2="400" transform="rotate(164, 400, 400)" opacity="0.94"></line>
    <line x1="295" y1="400" x2="505" y2="400" transform="rotate(168, 400, 400)" opacity="0.60"></line>
    <line x1="151.5" y1="400" x2="648.5" y2="400" transform="rotate(172, 400, 400)" opacity="0.92"></line>
    <line x1="200.5" y1="400" x2="599.5" y2="400" transform="rotate(176, 400, 400)" opacity="0.10"></line>
    <line x1="545.5" y1="400" x2="254.5" y2="400" transform="rotate(180, 400, 400)" opacity="0.93"></line>
    <line x1="89.5" y1="400" x2="710.5" y2="400" transform="rotate(184, 400, 400)" opacity="0.29"></line>
    <line x1="637.5" y1="400" x2="162.5" y2="400" transform="rotate(188, 400, 400)" opacity="0.57"></line>
    <line x1="596.5" y1="400" x2="203.5" y2="400" transform="rotate(192, 400, 400)" opacity="0.93"></line>
    <line x1="307.5" y1="400" x2="492.5" y2="400" transform="rotate(196, 400, 400)" opacity="0.37"></line>
    <line x1="223.5" y1="400" x2="576.5" y2="400" transform="rotate(200, 400, 400)" opacity="0.74"></line>
    <line x1="555" y1="400" x2="245" y2="400" transform="rotate(204, 400, 400)" opacity="0.28"></line>
    <line x1="572" y1="400" x2="228" y2="400" transform="rotate(208, 400, 400)" opacity="0.16"></line>
    <line x1="41" y1="400" x2="759" y2="400" transform="rotate(212, 400, 400)" opacity="0.29"></line>
    <line x1="477.5" y1="400" x2="322.5" y2="400" transform="rotate(216, 400, 400)" opacity="0.67"></line>
    <line x1="194.5" y1="400" x2="605.5" y2="400" transform="rotate(220, 400, 400)" opacity="0.41"></line>
    <line x1="260" y1="400" x2="540" y2="400" transform="rotate(224, 400, 400)" opacity="0.82"></line>
    <line x1="372.5" y1="400" x2="427.5" y2="400" transform="rotate(228, 400, 400)" opacity="0.69"></line>
    <line x1="416" y1="400" x2="384" y2="400" transform="rotate(232, 400, 400)" opacity="0.10"></line>
    <line x1="206" y1="400" x2="594" y2="400" transform="rotate(236, 400, 400)" opacity="0.65"></line>
    <line x1="598" y1="400" x2="202" y2="400" transform="rotate(240, 400, 400)" opacity="0.45"></line>
    <line x1="105" y1="400" x2="695" y2="400" transform="rotate(244, 400, 400)" opacity="0.37"></line>
    <line x1="525.5" y1="400" x2="274.5" y2="400" transform="rotate(248, 400, 400)" opacity="0.65"></line>
    <line x1="31.5" y1="400" x2="768.5" y2="400" transform="rotate(252, 400, 400)" opacity="0.77"></line>
    <line x1="274.5" y1="400" x2="525.5" y2="400" transform="rotate(256, 400, 400)" opacity="0.33"></line>
    <line x1="250.5" y1="400" x2="549.5" y2="400" transform="rotate(260, 400, 400)" opacity="0.14"></line>
    <line x1="67.5" y1="400" x2="732.5" y2="400" transform="rotate(264, 400, 400)" opacity="0.97"></line>
    <line x1="627" y1="400" x2="173" y2="400" transform="rotate(268, 400, 400)" opacity="0.15"></line>
    <line x1="42" y1="400" x2="758" y2="400" transform="rotate(272, 400, 400)" opacity="0.36"></line>
    <line x1="85.5" y1="400" x2="714.5" y2="400" transform="rotate(276, 400, 400)" opacity="0.82"></line>
    <line x1="458.5" y1="400" x2="341.5" y2="400" transform="rotate(280, 400, 400)" opacity="0.62"></line>
    <line x1="613.5" y1="400" x2="186.5" y2="400" transform="rotate(284, 400, 400)" opacity="0.86"></line>
    <line x1="332.5" y1="400" x2="467.5" y2="400" transform="rotate(288, 400, 400)" opacity="0.90"></line>
    <line x1="564.5" y1="400" x2="235.5" y2="400" transform="rotate(292, 400, 400)" opacity="0.91"></line>
    <line x1="575" y1="400" x2="225" y2="400" transform="rotate(296, 400, 400)" opacity="0.49"></line>
    <line x1="319.5" y1="400" x2="480.5" y2="400" transform="rotate(300, 400, 400)" opacity="0.83"></line>
    <line x1="611.5" y1="400" x2="188.5" y2="400" transform="rotate(304, 400, 400)" opacity="0.72"></line>
    <line x1="439" y1="400" x2="361" y2="400" transform="rotate(308, 400, 400)" opacity="0.92"></line>
    <line x1="183.5" y1="400" x2="616.5" y2="400" transform="rotate(312, 400, 400)" opacity="0.84"></line>
    <line x1="68.5" y1="400" x2="731.5" y2="400" transform="rotate(316, 400, 400)" opacity="0.83"></line>
    <line x1="613.5" y1="400" x2="186.5" y2="400" transform="rotate(320, 400, 400)" opacity="0.89"></line>
    <line x1="694.5" y1="400" x2="105.5" y2="400" transform="rotate(324, 400, 400)" opacity="0.93"></line>
    <line x1="443" y1="400" x2="357" y2="400" transform="rotate(328, 400, 400)" opacity="0.83"></line>
    <line x1="102" y1="400" x2="698" y2="400" transform="rotate(332, 400, 400)" opacity="0.60"></line>
    <line x1="341.5" y1="400" x2="458.5" y2="400" transform="rotate(336, 400, 400)" opacity="0.74"></line>
    <line x1="280.5" y1="400" x2="519.5" y2="400" transform="rotate(340, 400, 400)" opacity="0.28"></line>
    <line x1="509.5" y1="400" x2="290.5" y2="400" transform="rotate(344, 400, 400)" opacity="0.73"></line>
    <line x1="640" y1="400" x2="160" y2="400" transform="rotate(348, 400, 400)" opacity="0.42"></line>
    <line x1="52" y1="400" x2="748" y2="400" transform="rotate(352, 400, 400)" opacity="0.44"></line>
    <line x1="561" y1="400" x2="239" y2="400" transform="rotate(356, 400, 400)" opacity="0.99"></line>
    <line x1="23.5" y1="400" x2="776.5" y2="400" transform="rotate(360, 400, 400)" opacity="0.10"></line>
    <line x1="570" y1="400" x2="230" y2="400" transform="rotate(364, 400, 400)" opacity="0.70"></line>
    <line x1="579" y1="400" x2="221" y2="400" transform="rotate(368, 400, 400)" opacity="0.96"></line>
    <line x1="416" y1="400" x2="384" y2="400" transform="rotate(372, 400, 400)" opacity="0.07"></line>
    <line x1="239.5" y1="400" x2="560.5" y2="400" transform="rotate(376, 400, 400)" opacity="0.73"></line>
    <line x1="88.5" y1="400" x2="711.5" y2="400" transform="rotate(380, 400, 400)" opacity="0.61"></line>
    <line x1="360" y1="400" x2="440" y2="400" transform="rotate(384, 400, 400)" opacity="0.71"></line>
    <line x1="60" y1="400" x2="740" y2="400" transform="rotate(388, 400, 400)" opacity="0.55"></line>
    <line x1="387.5" y1="400" x2="412.5" y2="400" transform="rotate(392, 400, 400)" opacity="0.09"></line>
    <line x1="505" y1="400" x2="295" y2="400" transform="rotate(396, 400, 400)" opacity="0.51"></line>
    <line x1="691" y1="400" x2="109" y2="400" transform="rotate(400, 400, 400)" opacity="0.92"></line>
  </g>
</svg>